<svg xmlns="http://www.w3.org/2000/svg" width="40" height="40" viewBox="0 0 40 40">
  <g id="Group_2619" data-name="Group 2619" transform="translate(-238 -177)">
    <rect id="Rectangle_5753" data-name="Rectangle 5753" width="40" height="40" transform="translate(238 177)" fill="none"/>
    <g id="Page-1" transform="translate(247 185.954)">
      <g id="Group-2" transform="translate(0 0.046)">
        <path id="Fill-30" d="M7.188,2.714V1.705a1.706,1.706,0,1,0-3.411,0V2.714a1.5,1.5,0,0,0,.748,1.3,1.917,1.917,0,0,0,1.915,0,1.5,1.5,0,0,0,.748-1.3" transform="translate(-2.046 0)" fill="#efe6df" fill-rule="evenodd"/>
        <path id="Fill-32" d="M3.372,10.617C1.51,10.617,0,12.266,0,19.864H6.745c0-7.6-1.51-9.246-3.372-9.246" transform="translate(0 -5.751)" fill="#efe6df" fill-rule="evenodd"/>
        <path id="Fill-34" d="M.573,38.679h0A.573.573,0,0,1,0,38.106V30.792H2.855L1.132,38.235a.573.573,0,0,1-.558.444" transform="translate(0 -16.679)" fill="#efe6df" fill-rule="evenodd"/>
        <path id="Fill-36" d="M10.768,38.679h0a.574.574,0,0,0,.573-.573V30.792H8.486l1.723,7.443a.574.574,0,0,0,.559.444" transform="translate(-4.596 -16.679)" fill="#efe6df" fill-rule="evenodd"/>
        <path id="Fill-38" d="M3.372,10.617C1.51,10.617,0,12.266,0,19.864v7.314a.573.573,0,0,0,1.131.13l1.607-6.94a.65.65,0,0,1,1.267,0l1.607,6.94a.573.573,0,0,0,1.132-.13V19.864c0-7.6-1.51-9.246-3.372-9.246" transform="translate(0 -5.751)" fill="#efe6df" fill-rule="evenodd"/>
        <path id="Fill-40" d="M40.472,2.714V1.705a1.706,1.706,0,1,0-3.411,0V2.714a1.5,1.5,0,0,0,.748,1.3,1.917,1.917,0,0,0,1.916,0,1.5,1.5,0,0,0,.748-1.3" transform="translate(-20.075 0)" fill="#efe6df" fill-rule="evenodd"/>
        <path id="Fill-42" d="M36.657,10.617c-1.863,0-3.372,1.649-3.372,9.246h6.744c0-7.6-1.51-9.246-3.372-9.246" transform="translate(-18.029 -5.751)" fill="#efe6df" fill-rule="evenodd"/>
        <path id="Fill-44" d="M33.858,38.679h0a.574.574,0,0,1-.573-.573V30.792H36.14l-1.723,7.443a.574.574,0,0,1-.559.444" transform="translate(-18.029 -16.679)" fill="#efe6df" fill-rule="evenodd"/>
        <path id="Fill-46" d="M44.052,38.679h0a.573.573,0,0,0,.573-.573V30.792H41.77l1.723,7.443a.574.574,0,0,0,.559.444" transform="translate(-22.625 -16.679)" fill="#efe6df" fill-rule="evenodd"/>
        <path id="Fill-48" d="M36.657,10.617c-1.863,0-3.372,1.649-3.372,9.246v7.314a.573.573,0,0,0,1.132.13l1.607-6.94a.65.65,0,0,1,1.267,0l1.607,6.94a.573.573,0,0,0,1.131-.13V19.864c0-7.6-1.51-9.246-3.372-9.246" transform="translate(-18.029 -5.751)" fill="#efe6df" fill-rule="evenodd"/>
        <path id="Fill-737" d="M14.481,16.685,11.6,12.8l.183,5.706h1.781a1.141,1.141,0,0,0,.917-1.821" transform="translate(-6.284 -6.934)" fill="#efe6df" fill-rule="evenodd"/>
        <path id="Fill-738" d="M12.461,15.6H7.749a.391.391,0,0,1-.391-.391v-4.2a.391.391,0,0,1,.391-.391h4.712a.391.391,0,0,1,.391.391v4.2a.391.391,0,0,1-.391.391" transform="translate(-3.985 -5.751)" fill="#f2a35e" fill-rule="evenodd"/>
        <path id="Fill-739" d="M12.941,12.035H11.9a.267.267,0,0,1-.267-.267v-1.15h1.579v1.15a.267.267,0,0,1-.267.267" transform="translate(-6.299 -5.751)" fill="#f26666" fill-rule="evenodd"/>
        <path id="Fill-740" d="M12.208,25.25H10.657a.449.449,0,0,0,0,.9h1.59c-.011-.31-.023-.611-.039-.9" transform="translate(-5.529 -13.677)" fill="#e2dad5" fill-rule="evenodd"/>
        <path id="Fill-741" d="M35.047,21.284V19.416l-1.519.981c-.09.752-.152,1.612-.185,2.59a1.7,1.7,0,0,0,1.7-1.7" transform="translate(-18.061 -10.517)" fill="#e2dad5" fill-rule="evenodd"/>
        <path id="Fill-742" d="M30.18,12.806l-1.553,2.42a3.38,3.38,0,0,1-2.846,1.555.864.864,0,0,0,0,1.728h.564a8.034,8.034,0,0,0,3.461-.784l1.495-.734Z" transform="translate(-13.497 -6.937)" fill="#efe6df" fill-rule="evenodd"/>
      </g>
    </g>
  </g>
</svg>
